<svg width="31" height="31" fill="none" xmlns="http://www.w3.org/2000/svg"><path d="M24.29 12.286l-1.108-1.064V8.825a2.8 2.8 0 00-2.798-2.798 2.8 2.8 0 00-2.766 2.397h-3.23c-.42 0-.831.172-1.13.468l-7.195 7.196c-.296.298-.468.71-.468 1.132 0 .422.172.832.468 1.13l4.796 4.796c.298.299.71.468 1.13.468.42 0 .832-.172 1.13-.468l1.268-1.267v1.737c0 .42.178.834.489 1.134.304.296.729.466 1.166.466h7.082c.436 0 .86-.17 1.167-.466.31-.3.489-.714.489-1.134V13.422a1.58 1.58 0 00-.49-1.136zm-3.906-5.46a2 2 0 011.998 2v1.63l-1.631-1.564a1.639 1.639 0 00-1.355-.444 1.128 1.128 0 00-.21-.02h-.76a2.002 2.002 0 011.958-1.601zm-2.397 3.172a1.225 1.225 0 010 2.449 1.225 1.225 0 010-2.449zm5.995 13.616c0 .204-.09.41-.247.56a.878.878 0 01-.608.238h-7.083a.888.888 0 01-.609-.238.787.787 0 01-.247-.56v-2.535l5.127-5.127c.298-.297.468-.71.468-1.13V10.03l2.952 2.83c.157.15.247.357.247.56v10.194z" fill="#13A6BA"/><path d="M17.987 11.623a.4.4 0 000-.797.398.398 0 100 .798z" fill="#13A6BA"/></svg>