<svg width="31" height="31" fill="none" xmlns="http://www.w3.org/2000/svg"><path d="M22.72 11.108a3.99 3.99 0 00-1.38-1.075 4.153 4.153 0 00-4.114-4.672 4.155 4.155 0 00-3.74 5.948 3.988 3.988 0 00-.15 4.214l-2.286 2.285-3.994 3.996c-.4.4-.4 1.052 0 1.452.4.4 1.053.4 1.453 0l.642-.642.44.44c.4.4 1.053.4 1.453 0 .4-.4.4-1.052 0-1.452l-.44-.44.355-.356.44.44c.384.398 1.072.398 1.453 0 .398-.383.398-1.072 0-1.453l-.44-.44 2.38-2.379a3.977 3.977 0 003.296.311c.07.03.14.057.209.085v7.082c0 .076.03.15.08.206l1.05 1.129c.11.122.318.126.432.008l1.139-1.128a.3.3 0 00.088-.215v-.996a.3.3 0 00-.116-.238l-.663-.513.663-.514a.303.303 0 000-.476l-.663-.514.663-.513a.303.303 0 000-.476l-.663-.514.663-.513a.3.3 0 00.116-.238v-1.609a3.964 3.964 0 002.533-3.705 3.961 3.961 0 00-.543-2.009 3.413 3.413 0 00-.356-.516zm-3.781 1.483a.73.73 0 01.92-.706 3.567 3.567 0 01-.918.729l-.002-.023zm.73.73a.723.723 0 01-.46-.166 4.176 4.176 0 001.117-.884.708.708 0 01.076.32.735.735 0 01-.733.73zm-2.442-7.358a3.552 3.552 0 013.535 3.85 4.011 4.011 0 00-1.114-.157c-.457 0-.897.078-1.305.22a3.987 3.987 0 00-4.37.847l-.056.057a3.546 3.546 0 013.31-4.817zm-2.314 10.38a.3.3 0 00-.379.037l-2.76 2.76a.3.3 0 000 .426l.653.652a.43.43 0 010 .602.43.43 0 01-.602 0l-.653-.652a.3.3 0 00-.425 0l-.781.78a.304.304 0 000 .426l.652.653a.426.426 0 11-.602.602l-.652-.653a.3.3 0 00-.426 0l-.854.855a.426.426 0 11-.603-.602L11 18.71l2.933-2.933a.3.3 0 00.038-.379 3.379 3.379 0 01.425-4.25 3.388 3.388 0 013.163-.897c-.398.246-.748.56-1.036.926a2.372 2.372 0 00-1.417 4.032c.345.345.777.57 1.255.654a3.995 3.995 0 00.972.996 3.385 3.385 0 01-2.419-.518zm1.036-1.25a1.771 1.771 0 01-.872-2.036c.194.119.394.218.605.302a3.917 3.917 0 00.267 1.735zm-.179-2.349a3.445 3.445 0 01-.434-.233 1.752 1.752 0 01.724-.594 3.973 3.973 0 00-.29.827z" fill="#13A6BA"/></svg>