<svg width="27" height="28" viewBox="0 0 27 28" fill="none" xmlns="http://www.w3.org/2000/svg">
<path d="M7.4943 15.6353L3.49829 19.0558V5.37369C3.49829 5.14689 3.58338 4.92939 3.73484 4.76902C3.8863 4.60865 4.09172 4.51855 4.30591 4.51855H17.2279C17.4421 4.51855 17.6475 4.60865 17.799 4.76902C17.9504 4.92939 18.0355 5.14689 18.0355 5.37369V14.7801C18.0355 15.0069 17.9504 15.2244 17.799 15.3848C17.6475 15.5452 17.4421 15.6353 17.2279 15.6353H7.4943Z" stroke="#CCCFD0" stroke-width="1.7" stroke-linecap="round" stroke-linejoin="round"/>
<path d="M8.34399 15.6353V19.911C8.34399 20.1378 8.42908 20.3553 8.58054 20.5157C8.732 20.676 8.93742 20.7661 9.15162 20.7661H18.8852L22.8812 24.1866V10.5045C22.8812 10.2778 22.7961 10.0602 22.6447 9.89988C22.4932 9.73951 22.2878 9.64941 22.0736 9.64941H18.0355" stroke="#CCCFD0" stroke-width="1.7" stroke-linecap="round" stroke-linejoin="round"/>
</svg>
