<svg width="27" height="28" fill="none" xmlns="http://www.w3.org/2000/svg"><path d="M7.494 15.635l-3.996 3.42V5.375c0-.227.085-.445.237-.605a.786.786 0 01.57-.25h12.923c.214 0 .42.09.571.25.151.16.236.378.236.605v9.406a.882.882 0 01-.236.605.786.786 0 01-.571.25H7.494z" stroke="#CCCFD0" stroke-width="1.7" stroke-linecap="round" stroke-linejoin="round"/><path d="M8.344 15.635v4.276a.88.88 0 00.237.605c.151.16.356.25.57.25h9.734l3.996 3.42v-13.68a.882.882 0 00-.236-.605.786.786 0 00-.571-.25h-4.039" stroke="#CCCFD0" stroke-width="1.7" stroke-linecap="round" stroke-linejoin="round"/></svg>