<svg width="98" height="98" fill="none" xmlns="http://www.w3.org/2000/svg"><path d="M22.107 59.272l-3.393 12.666-12.4.262C2.608 65.327.506 57.462.506 49.105c0-8.08 1.966-15.701 5.45-22.412h.002l11.04 2.024 4.836 10.974a28.968 28.968 0 00-1.564 9.414c0 3.578.648 7.005 1.837 10.167z" fill="#FBBB00"/><path d="M97.122 40.002c.56 2.948.851 5.992.851 9.104a48.88 48.88 0 01-1.065 10.175c-2.373 11.171-8.572 20.926-17.159 27.83l-.002-.004-13.905-.71-1.968-12.284A29.045 29.045 0 0076.37 59.28H50.311V40.002h46.81z" fill="#518EF8"/><path d="M79.746 87.107l.003.002a48.528 48.528 0 01-30.51 10.73c-18.558 0-34.694-10.373-42.925-25.639l15.793-12.928c4.116 10.984 14.711 18.803 27.133 18.803a28.81 28.81 0 0014.633-3.963l15.873 12.995z" fill="#28B446"/><path d="M80.346 11.591L64.56 24.517a28.806 28.806 0 00-15.32-4.381c-12.702 0-23.496 8.177-27.405 19.555L5.958 26.693h-.003C14.066 11.056 30.405.373 49.24.373A48.529 48.529 0 0180.346 11.59z" fill="#F14336"/></svg>