<svg width="30" height="31" fill="none" xmlns="http://www.w3.org/2000/svg"><path d="M22.064 6.003H8.269c-1.314 0-2.383 1.007-2.383 2.465v14.27c0 1.457 1.069 2.465 2.383 2.465h13.795c1.314 0 2.383-1.008 2.383-2.465V8.468c0-1.458-1.069-2.465-2.383-2.465zm-3.489 3.003c0-.48.378-.861.832-.861h2.099c.463 0 .832.391.832.86v2.074c0 .48-.378.861-.832.861h-2.099c-.463 0-.832-.391-.832-.86V9.005zm-3.385 2.826a3.728 3.728 0 013.725 3.737 3.734 3.734 0 01-3.725 3.736 3.728 3.728 0 01-3.725-3.736 3.728 3.728 0 013.725-3.737zm7.158 10.407c0 .42-.331.763-.738.763H8.685a.751.751 0 01-.737-.763v-8.118H9.65a5.891 5.891 0 00-.237 1.643 5.77 5.77 0 005.768 5.78c3.186 0 5.767-2.591 5.767-5.78a5.89 5.89 0 00-.236-1.643h1.636v8.118z" fill="#C8F3F9"/></svg>