<svg width="29" height="31" fill="none" xmlns="http://www.w3.org/2000/svg"><path d="M23.262 10.644l.011.604c0 6.196-4.549 13.355-12.864 13.355a12.37 12.37 0 01-6.93-2.123c.347.046.705.07 1.073.07a8.804 8.804 0 005.611-2.02c-1.978-.035-3.644-1.392-4.225-3.26.28.058.56.08.85.08.413 0 .816-.057 1.184-.162-2.067-.429-3.62-2.32-3.62-4.594v-.047a4.342 4.342 0 002.045.58c-1.208-.835-2.001-2.286-2.001-3.898 0-.859.223-1.671.615-2.367 2.213 2.842 5.554 4.699 9.31 4.896a4.726 4.726 0 01-.112-1.067c0-2.588 2.012-4.688 4.515-4.688 1.297 0 2.481.568 3.308 1.474a9.093 9.093 0 002.873-1.126 4.67 4.67 0 01-1.99 2.6 9.003 9.003 0 002.605-.743 9.804 9.804 0 01-2.258 2.436z" fill="#C8F3F9"/></svg>