<svg width="66" height="67" fill="none" xmlns="http://www.w3.org/2000/svg"><path d="M63.61 29.278c-.007 0-.007 0 0 0L36.987 2.401A5.928 5.928 0 0032.743.626c-1.606 0-3.11.631-4.25 1.775L1.898 29.264l-.028.028c-2.328 2.364-2.328 6.206.014 8.563a5.91 5.91 0 003.983 1.769c.061.007.123.007.185.007H7.11v19.776c0 3.91 3.151 7.1 7.031 7.1h10.41a1.919 1.919 0 001.91-1.927V49.068c0-1.789 1.441-3.238 3.206-3.238h6.14c1.77 0 3.206 1.45 3.206 3.238v15.505c0 1.068.858 1.928 1.909 1.928h10.41c3.88 0 7.032-3.183 7.032-7.101V39.63h.982a5.95 5.95 0 004.25-1.775c2.349-2.364 2.349-6.212.014-8.577zm-2.706 5.846a2.16 2.16 0 01-1.545.644h-2.897a1.919 1.919 0 00-1.91 1.928V59.4c0 1.782-1.434 3.238-3.206 3.238h-8.501v-13.57c0-3.91-3.152-7.1-7.032-7.1h-6.139c-3.88 0-7.032 3.182-7.032 7.1v13.577h-8.5c-1.766 0-3.208-1.449-3.208-3.238V37.703a1.919 1.919 0 00-1.909-1.928h-2.85c-.027 0-.061-.007-.089-.007a2.123 2.123 0 01-1.503-.645 2.225 2.225 0 010-3.12l26.615-26.87a2.16 2.16 0 011.545-.645 2.16 2.16 0 011.546.645l26.609 26.87.013.014a2.227 2.227 0 01-.007 3.106z" fill="#B3C41D"/></svg>