<svg width="56" height="67" fill="none" xmlns="http://www.w3.org/2000/svg"><path d="M28.004 66.441c-.287 0-.56-.056-.825-.162C10.991 59.605.54 43.893.54 26.248V13.365c0-.896.53-1.694 1.348-2.04L27.165.73a2.146 2.146 0 011.67 0l25.278 10.597a2.206 2.206 0 011.348 2.039v12.883c0 17.645-10.452 33.364-26.633 40.03a2.23 2.23 0 01-.824.163zM4.906 14.832v11.409c0 15.38 9.005 29.328 22.937 35.53l.16.07.161-.07c13.932-6.202 22.938-20.143 22.938-35.53v-11.41l-23.098-9.68-23.098 9.68zm20.24 26.083c-.58 0-1.132-.232-1.544-.649l-7.203-7.274a2.21 2.21 0 010-3.118 2.17 2.17 0 011.544-.65c.58 0 1.132.234 1.544.65l5.666 5.722 11.367-11.48a2.175 2.175 0 011.544-.648c.58 0 1.132.233 1.544.649a2.211 2.211 0 010 3.118L26.69 40.266c-.412.417-.957.65-1.544.65z" fill="#B3C41D"/></svg>