<svg width="69" height="70" fill="none" xmlns="http://www.w3.org/2000/svg"><path d="M33.235 61.229a20.057 20.057 0 01-3.731-3.954 1.825 1.825 0 00-2.554-.42 1.867 1.867 0 00-.415 2.579 23.68 23.68 0 004.412 4.683 1.813 1.813 0 002.568-.29c.64-.797.51-1.966-.28-2.598zm22.206-32.91a19.806 19.806 0 014.27 3.355c.347.358.81.557 1.307.557.484 0 .933-.186 1.274-.523a1.866 1.866 0 00.034-2.612 23.354 23.354 0 00-5.053-3.968 1.824 1.824 0 00-2.499.674 1.833 1.833 0 00-.184 1.403c.123.474.422.866.851 1.114zm7.484 7.749a20.132 20.132 0 011.913 5.103 1.826 1.826 0 002.193 1.389 1.848 1.848 0 001.376-2.208 23.746 23.746 0 00-2.268-6.05 1.803 1.803 0 00-1.09-.888 1.812 1.812 0 00-1.389.151 1.815 1.815 0 00-.878 1.1 1.83 1.83 0 00.143 1.403zM43.102 65.43a19.662 19.662 0 01-5.222-1.41c-.927-.399-2.003.048-2.397.984a1.859 1.859 0 00.973 2.42 23.263 23.263 0 006.19 1.67 1.83 1.83 0 002.036-1.602 1.84 1.84 0 00-.374-1.36c-.3-.386-.722-.64-1.206-.702zM26.977 52.447a20.002 20.002 0 01-1.11-5.06c11.21-.915 20.177-9.772 21.382-21.008l.007.007.02-.213.042-.44a19.94 19.94 0 013.125.537c.477.123.967.048 1.383-.207a1.83 1.83 0 00.837-1.134 1.851 1.851 0 00-.197-1.396 1.82 1.82 0 00-1.124-.846 22.403 22.403 0 00-4.01-.653C46.411 9.725 36.238.154 23.96.154 11.043.153.536 10.763.536 23.807c0 12.411 9.472 22.67 21.661 23.586a23.776 23.776 0 001.342 6.312 1.838 1.838 0 001.716 1.217c.21 0 .422-.034.626-.11a1.854 1.854 0 001.096-2.366zm-4.766-8.753c-10.146-.9-18.018-9.537-18.018-19.886 0-11.01 8.866-19.962 19.768-19.962 10.248 0 18.801 7.949 19.693 18.195-11.426.935-20.517 10.115-21.443 21.653zm3.67-.014c.906-9.455 8.396-17.012 17.76-17.933-.913 9.455-8.397 17.012-17.76 17.933zm42.601 1.782a1.824 1.824 0 00-1.267-.606 1.773 1.773 0 00-1.314.475 1.86 1.86 0 00-.6 1.279 19.9 19.9 0 01-1 5.363 1.856 1.856 0 001.15 2.338c.191.062.389.096.58.096.782 0 1.484-.508 1.729-1.258a23.967 23.967 0 001.185-6.36 1.77 1.77 0 00-.463-1.328zm-4.045 10.911a1.823 1.823 0 00-2.54.482 20.047 20.047 0 01-3.63 4.05 1.832 1.832 0 00-.647 1.251c-.04.489.11.97.423 1.348a1.815 1.815 0 002.58.227 23.879 23.879 0 004.297-4.793 1.859 1.859 0 00-.483-2.565zm-10.746 7.448a19.497 19.497 0 01-5.182 1.54c-.483.076-.906.33-1.198.73-.293.398-.409.88-.34 1.368.135.894.912 1.575 1.804 1.575.088 0 .177-.007.272-.021a23.146 23.146 0 006.149-1.83c.443-.206.783-.57.96-1.03a1.84 1.84 0 00-.047-1.41 1.816 1.816 0 00-2.418-.922z" fill="#B3C41D"/><path d="M14.42 9.581a1.791 1.791 0 00-1.34.392c-4.209 3.37-6.62 8.417-6.62 13.835 0 1.018.818 1.843 1.825 1.843a1.834 1.834 0 001.825-1.843c0-4.284 1.907-8.279 5.237-10.947a1.859 1.859 0 00.293-2.6 1.765 1.765 0 00-1.22-.68zm9.54-3.445c-1.647 0-3.281.234-4.854.687a1.852 1.852 0 00-1.253 2.283 1.841 1.841 0 001.756 1.334c.17 0 .341-.027.511-.075a13.607 13.607 0 013.84-.544 1.834 1.834 0 001.826-1.842 1.834 1.834 0 00-1.825-1.843z" fill="#B3C41D"/></svg>