<svg width="131" height="27" fill="none" xmlns="http://www.w3.org/2000/svg"><path d="M17.995 26.904H0V.066h8.576v7.148h9.449c1.294 0 2.077.415 2.077.415.3.128.601.288.842.479.24.191.512.415.722.67.422.51.753 1.149.993 1.883.06.351.15.702.211 1.117.06.415.09.83.09 1.276v8.138c0 .479-.03.925-.09 1.308s-.15.766-.27 1.085c-.151.415-.302.798-.512 1.15a3.06 3.06 0 01-.693.829c-.21.255-.481.447-.752.638-.27.191-.541.287-.812.383 0 0-.933.32-1.836.32zm-4.664-15.828H9.599c-.15 0-.27.032-.39.127-.121.096-.242.192-.332.32a.969.969 0 00-.3.414c-.06.16-.091.32-.091.48v9.413c0 .16.03.287.12.415s.15.255.241.351c.12.128.24.223.361.287.12.064.271.16.421.16h3.732c.12 0 .24-.032.361-.128.12-.096.24-.16.331-.287.09-.128.18-.255.24-.383s.091-.287.091-.415v-9.446c0-.127-.03-.255-.09-.415-.06-.16-.12-.319-.241-.414-.12-.096-.21-.224-.331-.32-.12-.095-.24-.16-.391-.16zm12.308-3.862h7.793V8.65c.09-.191.211-.383.331-.574.12-.191.271-.32.392-.447.15-.127.33-.223.481-.287.15-.064.331-.128.542-.128h8.275c.391 0 .752.064 1.053.224.301.16.542.35.722.574.151.16.301.351.392.543.09.191.18.35.24.51.06.16.09.256.12.32.03.063 0 .063-.03-.033.06-.255.121-.51.181-.734.06-.223.18-.446.301-.638.12-.255.271-.447.452-.574.18-.128.42-.192.662-.192h6.8c.482 0 .933.064 1.325.16.39.096.722.255 1.053.479.33.223.571.446.812.702.24.255.422.574.602.893.15.287.27.575.361.894.09.319.18.638.24.957.061.415.121.83.151 1.245.03.415.06.797.06 1.18v13.148h-7.793V12.161c0-.16-.03-.32-.09-.447-.06-.128-.121-.223-.181-.351-.09-.064-.18-.128-.301-.192-.12-.063-.21-.063-.331-.063h-3.25c-.12 0-.21.031-.331.095-.12.064-.18.128-.24.192a3.415 3.415 0 00-.181.35c-.06.129-.06.224-.06.352v14.775h-7.825V12.225c0-.128-.03-.256-.06-.415-.03-.16-.09-.287-.15-.383a.955.955 0 00-.331-.287 1.08 1.08 0 00-.482-.128h-3.1c-.12 0-.24.032-.33.127-.09.096-.18.192-.271.32-.09.127-.12.255-.18.383-.06.127-.06.255-.06.383v14.647h-7.764V7.214zm58.95 6.766v12.86h-7.553l-.542-2.106c-.03.16-.06.287-.12.383-.06.095-.12.223-.15.319-.061.16-.121.287-.242.415-.12.127-.18.223-.27.319-.271.223-.542.415-.813.51-.3.096-.632.16-.963.16h-7.854c-.421 0-.812-.032-1.143-.128-.331-.095-.662-.191-.933-.35a3.04 3.04 0 01-.783-.575 3.746 3.746 0 01-.571-.798 5.285 5.285 0 01-.452-1.117c-.12-.415-.18-.83-.24-1.212a9.1 9.1 0 01-.09-1.277c0-.415-.03-.83-.03-1.213v-1.117c0-.383.03-.797.06-1.212.03-.415.12-.798.18-1.18.06-.384.18-.735.33-1.054.151-.351.362-.67.633-.957.27-.288.541-.511.903-.702.27-.16.601-.256.963-.351a4.585 4.585 0 011.173-.128h8.757c.15 0 .33-.064.481-.16.15-.095.331-.223.452-.414.09-.096.18-.224.24-.383.06-.16.09-.288.09-.415 0-.16-.03-.287-.12-.447-.09-.16-.15-.287-.27-.383a1.146 1.146 0 00-.392-.287c-.15-.064-.27-.128-.42-.128H63.252V7.118h16.22c.482 0 .903.032 1.294.128s.752.223 1.083.383c.392.16.693.415.963.67.271.255.512.575.692.894.181.287.362.606.482.957s.24.67.3 1.021c.121.479.181.958.242 1.436.06.479.06.958.06 1.373zm-8.516 3.414H71.92c-.18 0-.361.064-.542.16a1.85 1.85 0 00-.481.383c-.12.16-.21.319-.331.51a.838.838 0 00-.15.51v2.809c0 .128.03.255.09.383s.12.255.21.383c.12.128.271.223.422.35.15.129.33.16.451.16h3.4a.7.7 0 00.392-.127c.15-.096.27-.192.39-.32.091-.095.181-.223.242-.35a.891.891 0 00.09-.383v-4.468h-.03zm20.222 9.51H87.69V7.214h8.606V8.97c.12-.192.271-.383.452-.575.06-.096.15-.191.27-.287.12-.096.211-.16.301-.192.15-.095.271-.191.422-.287.15-.096.27-.16.421-.191.15-.064.331-.096.481-.128.151-.032.301-.064.452-.064h5.116v5.457h-4.514a4.85 4.85 0 00-1.234.16c-.391.096-.752.223-1.023.415-.15.063-.301.16-.421.287-.12.128-.211.255-.332.383-.15.16-.24.319-.3.51a1.96 1.96 0 00-.09.607v11.839zm18.927-12.86l7.372-6.797h5.417l-5.086 4.723 7.915 14.966h-10.202l-4.032-9.222-1.414 1.468V27l-8.546-.032V.162h8.546v13.882h.03z" fill="#021112"/></svg>